<?xml version="1.0" encoding="UTF-8"?>
<!-- Generated by Pixelmator Pro 3.2.3 -->
<svg width="44" height="44" viewBox="0 0 44 44" xmlns="http://www.w3.org/2000/svg" xmlns:xlink="http://www.w3.org/1999/xlink">
    <path id="basket-shopping" fill="#ffffff" stroke="none" d="M 17.027779 24.765827 C 16.67639 24.765827 16.388889 25.053328 16.388889 25.404715 L 16.388889 29.238049 C 16.388889 29.590796 16.675112 29.841 17.027779 29.841 C 17.380524 29.841 17.666666 29.554857 17.666666 29.238049 L 17.666666 25.404715 C 17.666666 25.053328 17.379168 24.765827 17.027779 24.765827 Z M 21.5 24.729889 C 21.147333 24.729889 20.861111 25.016111 20.861111 25.368778 L 20.861111 29.20211 C 20.861111 29.554857 21.147333 29.805063 21.5 29.805063 C 21.852747 29.805063 22.138889 29.518959 22.138889 29.20211 L 22.138889 25.404715 C 22.138889 25.053328 21.851389 24.729889 21.5 24.729889 Z M 25.972221 24.765827 C 25.619556 24.765827 25.333334 25.051968 25.333334 25.404715 L 25.333334 29.238049 C 25.333334 29.590796 25.619556 29.841 25.972221 29.841 C 26.32497 29.841 26.611111 29.554857 26.611111 29.238049 L 26.611111 25.404715 C 26.611111 25.053328 26.32361 24.765827 25.972221 24.765827 Z M 32.361111 19.654715 L 26.734896 19.654715 L 24.015224 12.403326 C 23.891083 12.072023 23.52368 11.907387 23.192257 12.029615 C 22.862192 12.153761 22.695122 12.521961 22.818546 12.852585 L 25.36927 19.654715 L 17.63073 19.654715 L 20.181892 12.85055 C 20.305439 12.519884 20.138208 12.151764 19.808182 12.02758 C 19.475521 11.905712 19.10816 12.071024 18.984375 12.402529 L 16.265104 19.654715 L 10.638889 19.654715 C 10.286062 19.654715 10 19.940697 10 20.257668 C 10 20.644993 10.286062 20.932493 10.638889 20.932493 L 11.277778 20.932493 L 13.388507 30.431973 C 13.648455 31.601938 14.683854 32.432495 15.881771 32.432495 L 27.114237 32.432495 C 28.276217 32.432495 29.34915 31.60074 29.609097 30.431175 L 31.722221 20.932493 L 32.361111 20.932493 C 32.712498 20.932493 33 20.644993 33 20.293604 C 33 19.942217 32.712498 19.654715 32.361111 19.654715 Z M 28.364061 30.152458 C 28.232292 30.743431 27.72118 31.154716 27.118229 31.154716 L 15.881771 31.154716 C 15.27842 31.154716 14.765312 30.743431 14.63434 30.154057 L 12.586701 20.932493 L 15.786337 20.932493 L 15.15184 22.62475 C 15.028296 22.955416 15.195524 23.323536 15.52555 23.447718 C 15.598264 23.47607 15.674132 23.488049 15.75 23.488049 C 16.00831 23.488049 16.252327 23.330204 16.34816 23.07357 L 17.151564 20.932493 L 25.848436 20.932493 L 26.651442 23.073969 C 26.746874 23.328327 26.990452 23.488049 27.25 23.488049 C 27.324869 23.488049 27.400377 23.474947 27.474609 23.447479 C 27.804674 23.323336 27.971745 22.955135 27.84832 22.62451 L 27.214064 20.932493 L 30.413698 20.932493 L 28.364061 30.152458 Z"/>
</svg>
