<?xml version="1.0" encoding="UTF-8"?>
<!-- Generated by Pixelmator Pro 3.2.3 -->
<svg width="44" height="44" viewBox="0 0 44 44" xmlns="http://www.w3.org/2000/svg" xmlns:xlink="http://www.w3.org/1999/xlink">
    <path id="address-card" fill="#ffffff" stroke="none" d="M 29.595238 23.793652 L 24.198412 23.793652 C 23.825863 23.793652 23.523809 24.095705 23.523809 24.468254 C 23.523809 24.840803 23.827381 25.142857 24.198412 25.142857 L 29.595238 25.142857 C 29.967787 25.142857 30.269842 24.840803 30.269842 24.468254 C 30.269842 24.095705 29.966269 23.793652 29.595238 23.793652 Z M 17.452381 22.444445 C 18.942833 22.444445 20.150793 21.236483 20.150793 19.746031 C 20.150793 18.255581 18.940723 17.047619 17.452381 17.047619 C 15.964038 17.047619 14.753968 18.257689 14.753968 19.746031 C 14.753968 21.234375 15.964038 22.444445 17.452381 22.444445 Z M 17.452381 18.396826 C 18.196131 18.396826 18.801588 19.002281 18.801588 19.746031 C 18.801588 20.489782 18.194445 21.095238 17.452381 21.095238 C 16.710318 21.095238 16.103174 20.488096 16.103174 19.746031 C 16.103174 19.003967 16.710318 18.396826 17.452381 18.396826 Z M 18.801588 23.793652 L 16.103174 23.793652 C 14.240427 23.793652 12.730159 25.303919 12.730159 27.166666 C 12.730159 27.537699 13.032043 27.84127 13.404762 27.84127 C 13.77748 27.84127 14.079365 27.539217 14.079365 27.166666 C 14.079365 26.049355 14.985863 25.142857 16.103174 25.142857 L 18.801588 25.142857 C 19.919321 25.142857 20.825397 26.048933 20.825397 27.166666 C 20.825397 27.539217 21.127451 27.84127 21.5 27.84127 C 21.872549 27.84127 22.174603 27.539217 22.174603 27.166666 C 22.174603 25.303076 20.665178 23.793652 18.801588 23.793652 Z M 30.944445 13 L 12.055555 13 C 10.565104 13 9.357142 14.20796 9.357142 15.698412 L 9.357142 29.190475 C 9.357142 30.680927 10.565104 31.888889 12.055555 31.888889 L 30.944445 31.888889 C 32.434895 31.888889 33.642857 30.680927 33.642857 29.190475 L 33.642857 15.698412 C 33.642857 14.20796 32.432789 13 30.944445 13 Z M 32.293652 29.190475 C 32.293652 29.934227 31.688194 30.539682 30.944445 30.539682 L 12.055555 30.539682 C 11.311806 30.539682 10.706349 29.934227 10.706349 29.190475 L 10.706349 15.698412 C 10.706349 14.954662 11.311806 14.349207 12.055555 14.349207 L 30.944445 14.349207 C 31.688194 14.349207 32.293652 14.954662 32.293652 15.698412 L 32.293652 29.190475 Z M 29.595238 21.095238 L 24.198412 21.095238 C 23.825863 21.095238 23.523809 21.397291 23.523809 21.769842 C 23.523809 22.142391 23.827381 22.444445 24.198412 22.444445 L 29.595238 22.444445 C 29.967787 22.444445 30.269842 22.142391 30.269842 21.769842 C 30.269842 21.397291 29.966269 21.095238 29.595238 21.095238 Z M 29.595238 18.396826 L 24.198412 18.396826 C 23.825863 18.396826 23.523809 18.698879 23.523809 19.071428 C 23.523809 19.443977 23.827381 19.746031 24.198412 19.746031 L 29.595238 19.746031 C 29.967787 19.746031 30.269842 19.443977 30.269842 19.071428 C 30.269842 18.698879 29.966269 18.396826 29.595238 18.396826 Z"/>
</svg>
