<?xml version="1.0" encoding="UTF-8"?>
<!-- Generated by Pixelmator Pro 3.2.3 -->
<svg width="44" height="44" viewBox="0 0 44 44" xmlns="http://www.w3.org/2000/svg" xmlns:xlink="http://www.w3.org/1999/xlink">
    <path id="mobile-button" fill="#ffffff" stroke="none" d="M 21.5 27.3125 C 20.980078 27.3125 20.5625 27.730078 20.5625 28.25 C 20.5625 28.769922 20.980078 29.1875 21.5 29.1875 C 22.019922 29.1875 22.4375 28.769922 22.4375 28.25 C 22.4375 27.730078 22.019531 27.3125 21.5 27.3125 Z M 25.25 12 L 17.75 12 C 16.369141 12 15.25 13.119141 15.25 14.5 L 15.25 29.5 C 15.25 30.880859 16.369141 32 17.75 32 L 25.25 32 C 26.630859 32 27.75 30.880859 27.75 29.5 L 27.75 14.5 C 27.75 13.119141 26.628906 12 25.25 12 Z M 26.5 29.5 C 26.5 30.189064 25.939064 30.75 25.25 30.75 L 17.75 30.75 C 17.060938 30.75 16.5 30.189064 16.5 29.5 L 16.5 14.5 C 16.5 13.810936 17.060938 13.25 17.75 13.25 L 25.25 13.25 C 25.939064 13.25 26.5 13.810936 26.5 14.5 L 26.5 29.5 Z"/>
</svg>
