<?xml version="1.0" encoding="UTF-8"?>
<!-- Generated by Pixelmator Pro 3.2.3 -->
<svg width="44" height="44" viewBox="0 0 44 44" xmlns="http://www.w3.org/2000/svg" xmlns:xlink="http://www.w3.org/1999/xlink">
    <path id="users" fill="#ffffff" stroke="none" d="M 21.496016 24.75 C 23.783445 24.75 25.603907 22.894875 25.603907 20.606251 C 25.603907 18.317625 23.749578 16.4625 21.496016 16.4625 C 19.208586 16.4625 17.388124 18.317625 17.388124 20.606251 C 17.352266 22.893282 19.208984 24.75 21.496016 24.75 Z M 21.496016 17.737499 C 23.077015 17.737499 24.363171 19.024452 24.363171 20.606251 C 24.363171 22.188047 23.073828 23.475 21.496016 23.475 C 19.918203 23.475 18.627266 22.188047 18.627266 20.606251 C 18.627266 19.024452 19.914219 17.737499 21.496016 17.737499 Z M 23.488203 26.025 L 19.511797 26.025 C 16.384062 26.025 13.85 28.403671 13.85 31.33617 C 13.85 31.925859 14.356015 32.400002 14.981563 32.400002 L 28.018438 32.400002 C 28.643984 32.400002 29.15 31.925859 29.15 31.33617 C 29.15 28.403671 26.615938 26.025 23.488203 26.025 Z M 15.132969 31.125 C 15.253337 28.996944 17.172571 27.299999 19.479921 27.299999 L 23.488203 27.299999 C 25.830219 27.299999 27.747499 28.996944 27.835155 31.125 L 15.132969 31.125 Z M 29.15 18.375 C 30.910297 18.375 32.337502 16.947796 32.337502 15.1875 C 32.337502 13.427204 30.911095 12 29.15 12 C 27.389704 12 25.9625 13.427204 25.9625 15.1875 C 25.9625 16.947796 27.388906 18.375 29.15 18.375 Z M 29.15 13.275 C 30.204662 13.275 31.0625 14.132835 31.0625 15.1875 C 31.0625 16.242165 30.20586 17.1 29.15 17.1 C 28.094141 17.1 27.237499 16.242165 27.237499 15.1875 C 27.237499 14.132835 28.094141 13.275 29.15 13.275 Z M 13.85 18.375 C 15.610296 18.375 17.0375 16.947796 17.0375 15.1875 C 17.0375 13.427204 15.611094 12 13.85 12 C 12.089704 12 10.6625 13.427204 10.6625 15.1875 C 10.6625 16.947796 12.089704 18.375 13.85 18.375 Z M 13.85 13.275 C 14.904664 13.275 15.7625 14.132835 15.7625 15.1875 C 15.7625 16.242165 14.905859 17.1 13.85 17.1 C 12.794141 17.1 11.9375 16.243359 11.9375 15.1875 C 11.9375 14.131641 12.794141 13.275 13.85 13.275 Z M 31.106327 19.65 L 28.512501 19.65 C 28.067844 19.65 27.632751 19.749609 27.218773 19.946358 C 26.900661 20.097645 26.764954 20.477875 26.916201 20.795427 C 27.067446 21.112984 27.44931 21.249249 27.76527 21.098001 C 28.006483 20.984766 28.2575 20.924999 28.512501 20.924999 L 31.105532 20.924999 C 32.102421 20.924999 32.974998 21.829454 32.974998 22.945078 L 32.974998 23.475 C 32.974998 23.827377 33.26012 24.112499 33.612499 24.112499 C 33.964878 24.112499 34.25 23.825624 34.25 23.475 L 34.25 22.945078 C 34.25 21.128202 32.839531 19.65 31.106327 19.65 Z M 15.236563 21.096327 C 15.552842 21.247614 15.935023 21.111269 16.085632 20.793755 C 16.236919 20.47624 16.101196 20.095692 15.78306 19.944685 C 15.368047 19.749609 14.93375 19.65 14.4875 19.65 L 11.894468 19.65 C 10.160867 19.65 8.75 21.128202 8.75 22.945078 L 8.75 23.475 C 8.75 23.827377 9.035122 24.112499 9.3875 24.112499 C 9.739878 24.112499 10.025 23.825624 10.025 23.475 L 10.025 22.945078 C 10.025 21.829454 10.863711 20.924999 11.894468 20.924999 L 14.4875 20.924999 C 14.742499 20.924999 14.993516 20.984766 15.236563 21.096327 Z"/>
</svg>
