<?xml version="1.0" encoding="UTF-8"?>
<!-- Generated by Pixelmator Pro 3.2.3 -->
<svg width="44" height="44" viewBox="0 0 44 44" xmlns="http://www.w3.org/2000/svg" xmlns:xlink="http://www.w3.org/1999/xlink">
    <path id="user-tie" fill="#37517e" stroke="none" d="M 25.543497 24.210938 C 25.48506 24.191942 25.425606 24.182938 25.366894 24.182938 C 25.125879 24.182938 24.896582 24.33407 24.795801 24.565243 L 23.415331 27.726961 L 22.34037 24.5 L 22.723183 24.5 C 23.068651 24.5 23.348183 24.220469 23.348183 23.875 C 23.348183 23.529531 23.066933 23.25 22.723183 23.25 L 20.223183 23.25 C 19.879433 23.25 19.598183 23.53125 19.598183 23.875 C 19.598183 24.21875 19.879433 24.5 20.223183 24.5 L 20.605644 24.5 L 19.529863 27.728127 L 18.149395 24.566406 C 18.047401 24.335938 17.820839 24.183594 17.578651 24.183594 C 17.519901 24.183594 17.460566 24.19252 17.40205 24.211515 C 14.669238 25.099016 12.69502 27.672062 12.722363 30.707609 C 12.730051 31.429688 13.354433 32 14.077089 32 L 28.867714 32 C 29.59037 32 30.214981 31.430859 30.221231 30.707813 C 30.250528 27.671875 28.277872 25.097656 25.543497 24.210938 Z M 14.077089 30.75 C 14.018027 30.75 13.977675 30.708439 13.97334 30.69668 C 13.953351 28.474022 15.245214 26.497461 17.240917 25.610743 L 19.484903 30.75 L 14.077089 30.75 Z M 22.098183 30.714844 L 20.848183 30.714844 L 20.27709 29.407032 L 21.473183 25.851563 L 22.669277 29.440624 L 22.098183 30.714844 Z M 28.867714 30.75 L 23.461464 30.75 L 25.705215 25.609375 C 27.701309 26.496094 28.993105 28.472656 28.973183 30.695313 C 28.969276 30.707031 28.926308 30.75 28.867714 30.75 Z M 21.473183 22 C 24.236855 22 26.473183 19.763672 26.473183 17 C 26.473183 14.236328 24.236855 12 21.473183 12 C 18.709511 12 16.473183 14.236328 16.473183 17 C 16.473183 19.763672 18.711464 22 21.473183 22 Z M 21.473183 13.25 C 23.541153 13.25 25.223183 14.932032 25.223183 17 C 25.223183 19.067577 23.541153 20.75 21.473183 20.75 C 19.405214 20.75 17.723183 19.066406 17.723183 17 C 17.723183 14.932032 19.406778 13.25 21.473183 13.25 Z"/>
</svg>
