<?xml version="1.0" encoding="UTF-8"?>
<!-- Generated by Pixelmator Pro 3.2.3 -->
<svg width="44" height="44" viewBox="0 0 44 44" xmlns="http://www.w3.org/2000/svg" xmlns:xlink="http://www.w3.org/1999/xlink">
    <path id="stopwatch" fill="#37517e" stroke="none" d="M 21.5 18.875 C 21.15625 18.875 20.875 19.15625 20.875 19.5 L 20.875 25.125 C 20.875 25.470469 21.154531 25.75 21.5 25.75 C 21.845469 25.75 22.125 25.470469 22.125 25.125 L 22.125 19.5 C 22.125 19.15625 21.84375 18.875 21.5 18.875 Z M 29.441406 17.441406 C 29.685547 17.197266 29.685547 16.801561 29.441406 16.557812 C 29.197266 16.314062 28.801563 16.313671 28.557812 16.557812 L 27.109375 18.00625 C 25.792969 16.746094 24.054688 15.929688 22.125 15.781641 L 22.125 13.25 L 24.625391 13.250027 C 24.96875 13.25 25.25 12.970312 25.25 12.625 C 25.25 12.279688 24.96875 12 24.625 12 L 18.375 12 C 18.03125 12 17.75 12.279844 17.75 12.625 C 17.75 12.970156 18.030001 13.25 18.375 13.25 L 20.875 13.25 L 20.875 15.781641 C 16.679688 16.101563 13.375 19.597656 13.375 23.875 C 13.375 28.363281 17.01289 32 21.5 32 C 25.98711 32 29.625 28.36211 29.625 23.875 C 29.625 22.016407 28.994141 20.308985 27.94375 18.941406 L 29.441406 17.441406 Z M 28.375 23.875 C 28.375 27.666016 25.291016 30.75 21.5 30.75 C 17.708984 30.75 14.625 27.666016 14.625 23.875 C 14.625 20.083984 17.675781 17 21.5 17 C 25.324219 17 28.375 20.050781 28.375 23.875 Z"/>
</svg>
